<?xml version="1.0" standalone="no"?>
<!DOCTYPE svg PUBLIC "-//W3C//DTD SVG 20010904//EN"
 "http://www.w3.org/TR/2001/REC-SVG-20010904/DTD/svg10.dtd">
<svg version="1.0" xmlns="http://www.w3.org/2000/svg"
 width="512.000000pt" height="512.000000pt" viewBox="0 0 512.000000 512.000000"
 preserveAspectRatio="xMidYMid meet">

<g transform="translate(0.000000,512.000000) scale(0.100000,-0.100000)"
fill="#000000" stroke="none">
<path d="M2330 5110 c-494 -48 -950 -230 -1350 -538 -195 -150 -448 -432 -594
-662 -63 -99 -186 -351 -230 -471 -49 -134 -102 -340 -128 -499 -31 -195 -31
-565 0 -760 45 -276 116 -498 237 -745 132 -269 269 -460 489 -681 221 -220
412 -357 681 -489 247 -121 469 -192 745 -237 195 -31 565 -31 760 0 276 45
498 116 745 237 269 132 460 269 681 489 220 221 357 412 489 681 88 179 132
296 180 476 63 240 78 371 78 649 0 278 -15 409 -78 649 -48 180 -92 297 -180
476 -132 269 -269 460 -489 681 -221 220 -412 357 -681 489 -246 121 -474 193
-740 235 -147 23 -475 34 -615 20z m554 -435 c449 -70 861 -280 1186 -605 328
-328 535 -736 607 -1195 24 -152 24 -478 0 -630 -72 -459 -279 -867 -607
-1195 -328 -328 -736 -535 -1195 -607 -152 -24 -478 -24 -630 0 -459 72 -867
279 -1195 607 -328 328 -535 736 -607 1195 -24 152 -24 478 0 630 121 771 647
1419 1372 1690 130 49 336 100 455 114 52 6 109 13 125 15 63 9 394 -4 489
-19z"/>
<path d="M3730 3584 c-23 -9 -309 -288 -807 -787 l-773 -772 -357 356 c-197
196 -374 365 -393 375 -45 23 -143 24 -185 2 -72 -38 -116 -108 -117 -183 -2
-94 -4 -91 471 -568 293 -294 460 -454 487 -467 53 -26 133 -26 182 -1 47 25
1744 1724 1767 1769 35 71 13 183 -47 239 -54 51 -157 68 -228 37z"/>
</g>
</svg>
